<svg width="103" height="105" viewBox="0 0 103 105" fill="none" xmlns="http://www.w3.org/2000/svg">
<mask id="mask0_1542_506" style="mask-type:alpha" maskUnits="userSpaceOnUse" x="0" y="0" width="103" height="105">
<rect width="103" height="105" fill="black"/>
</mask>
<g mask="url(#mask0_1542_506)">
<path d="M27.6211 99.3307C25.0504 98.3388 24.0134 96.4083 24.167 93.595C24.2822 91.489 24.1901 89.3697 24.1901 87.1333H18.8335V85.6549C18.8335 78.9912 18.8335 72.3248 18.8335 65.661C18.8335 61.4464 20.9331 59.1861 24.9838 59.1516C25.8288 59.1436 26.0951 58.7367 26.3537 58.056C28.7273 51.831 31.1213 45.614 33.5103 39.3944C34.2656 37.4293 34.8673 37.0038 36.9285 37.0012C50.3379 36.9985 63.7446 37.0012 77.154 37.0012C79.3022 37.0012 79.8706 37.4001 80.6567 39.4422C83.0201 45.5795 85.3962 51.7114 87.7211 57.8672C88.0642 58.7766 88.4457 59.1728 89.4648 59.1569C92.5989 59.109 94.422 60.9411 95.3335 63.9193V87.1041H90.2663C90.2663 89.3218 90.1587 91.356 90.2919 93.3716C90.4788 96.1823 89.5468 98.2138 86.9914 99.3333H81.5939C79.0436 98.3229 77.9682 96.3897 78.1654 93.587C78.2473 92.4064 78.1782 91.2151 78.1782 90.0265V87.1945H36.2602C36.2602 89.2925 36.1399 91.3268 36.2884 93.3397C36.4984 96.1663 35.551 98.1819 33.0187 99.3333H27.6211V99.3307ZM31.4311 59.0399H82.5976C82.4235 58.5798 82.2929 58.2315 82.1572 57.8858C80.2854 53.142 78.3856 48.4061 76.5599 43.6436C76.2194 42.7528 75.8071 42.4603 74.8802 42.463C62.9432 42.5002 51.0062 42.4976 39.0691 42.4656C38.2037 42.4656 37.7863 42.7236 37.456 43.5772C35.6252 48.3396 33.7254 53.0728 31.8536 57.8167C31.7051 58.1969 31.5848 58.5878 31.4311 59.0372V59.0399ZM81.9728 66.9667C78.9617 66.9667 76.4882 69.4848 76.4575 72.588C76.4293 75.6354 78.9361 78.3636 81.7347 78.337C84.8995 78.3078 87.4676 75.7391 87.4625 72.6093C87.4574 69.5141 84.9788 66.9667 81.9703 66.964L81.9728 66.9667ZM26.3946 72.6386C26.3895 75.654 28.8348 78.3317 31.5848 78.3237C34.7777 78.3131 37.3408 75.8215 37.3894 72.6784C37.4381 69.6125 34.9518 66.9959 31.9612 66.9667C28.8783 66.9374 26.3998 69.4636 26.3946 72.6412V72.6386Z" stroke="white" stroke-width="2" stroke-linejoin="round"/>
<path d="M6.71331 28.9271L6.12592 28.3465C5.54444 27.5035 5.4537 26.5536 5.46032 25.5617C5.47377 23.6111 5.44502 21.6599 5.43364 19.7094C5.40965 15.595 5.38236 11.4807 5.36498 7.36624C5.35664 5.36776 6.68854 3.96719 8.6597 3.95351C17.2011 3.89178 25.7425 3.84493 34.284 3.80801C35.3734 3.80265 36.3568 4.2024 37.1339 4.96398C40.2695 8.03578 43.3854 11.1276 46.503 14.2177C47.2884 14.9957 47.6613 15.9548 47.4476 17.048C47.3456 17.5705 47.0473 18.0553 46.8385 18.5561L36.9159 28.5935C36.8705 28.6078 36.8193 28.6131 36.7805 28.6373C35.9597 29.1548 35.0811 29.4295 34.0951 29.4334C25.8845 29.4684 17.6731 29.5142 9.4634 29.5733C8.48403 29.5805 7.54717 29.5014 6.71496 28.9271L6.71331 28.9271ZM37.5086 14.3333C36.2764 13.1052 34.2175 13.1128 32.9806 14.3507C31.7536 15.5786 31.7631 17.6424 33.0012 18.8795C34.2302 20.1076 36.294 20.0983 37.5292 18.8604C38.7571 17.6284 38.7484 15.5687 37.5095 14.3341L37.5086 14.3333Z" stroke="white" stroke-width="2" stroke-linejoin="round"/>
</g>
</svg>
