<?xml version="1.0" encoding="UTF-8"?>
<svg xmlns="http://www.w3.org/2000/svg" version="1.1" viewBox="0 0 100 111">
  <defs>
    <style>
      .cls-1 {
        mix-blend-mode: overlay;
      }

      .cls-2 {
        isolation: isolate;
      }

      .cls-3 {
        fill: #fff;
        stroke-width: 0px;
      }
    </style>
  </defs>
  <g class="cls-2">
    <g id="Layer_1" data-name="Layer 1">
      <g class="cls-1">
        <path class="cls-3" d="M74.1,74.2c1.9,5.1,3.8,10.1,5.7,15.1.5,1.4,1.1,2.7,1.5,4.1.2.5.1,1.3-.2,1.7-.3.3-1.2.4-1.6.3-3.7-1.2-7.5-2.4-11.3-3.7-.2.3-.4.6-.6.9-1.8,3-3.6,6.1-5.4,9.1-.4.6-.7,1.2-1.6,1.1-.8,0-1.1-.7-1.3-1.4-2.5-6.8-5.1-13.6-7.6-20.4-.3-.7-.7-1-1.4-1-.7,0-1.1.3-1.4,1-2.5,6.8-5,13.5-7.5,20.2,0,.2,0,.3-.2.4-.4.4-.8,1-1.2,1-.4,0-1.1-.4-1.4-.8-1.9-3.1-3.7-6.2-5.6-9.3-.2-.3-.4-.6-.6-1-2.9,1-5.8,1.9-8.7,2.8-.9.3-1.7.7-2.6.8-.5,0-1.3,0-1.6-.3-.3-.3-.4-1.2-.2-1.7,1.4-4,2.9-8,4.4-12,.8-2.2,1.7-4.5,2.5-6.7,0-.2,0-.4.2-.6-3.6-.8-4.7-3.4-5-6.7,0-.7-.2-1.4-.3-2.1-.2-2.1-1.3-3.6-3-4.8-1-.7-1.9-1.4-2.8-2.2-1.9-1.7-2.5-3.9-1.7-6.4.3-1,.7-2,1.2-2.9,1.2-2.4,1.2-4.7,0-7.1-.6-1.2-1-2.4-1.3-3.6-.5-1.9,0-3.6,1.3-5,1-1,2.1-1.9,3.2-2.7,2.1-1.4,3.2-3.4,3.3-5.9,0-.8.1-1.6.3-2.3.7-3.7,2.4-5.2,6.1-5.7.9-.1,1.9-.2,2.8-.3,2.1-.2,3.6-1.3,4.8-3,.7-1,1.5-2,2.4-3,1.7-1.9,3.8-2.4,6.2-1.6,1.1.4,2.1.8,3.2,1.3,2.2,1.1,4.4,1.1,6.6,0,1-.5,2.1-.9,3.2-1.3,2.4-.8,4.6-.2,6.3,1.6.8.9,1.5,1.8,2.2,2.8,1.4,2.1,3.3,3.2,5.9,3.3,1,0,2,.2,3,.4,3.1.7,4.7,2.5,5.1,6.1.1.9.2,1.9.3,2.8.2,2.1,1.4,3.6,3,4.8,1,.7,2,1.5,3,2.4,1.8,1.7,2.3,3.7,1.6,6-.4,1.1-.8,2.2-1.3,3.3-1.1,2.3-1.1,4.5,0,6.7.6,1.2,1,2.5,1.4,3.7.6,1.9,0,3.7-1.3,5.1-1,1-2,1.9-3.1,2.6-2.2,1.4-3.3,3.4-3.4,6,0,1.2-.3,2.3-.6,3.5-.5,2-1.8,3.4-3.8,4.1-.2,0-.5.2-.8.3h0ZM58.8,80.1c.7-.4,1.4-.6,1.9-1.1.8-.8,1.5-1.8,2.2-2.7,1.5-2.2,3.5-3.8,6.2-4.2,1.2-.2,2.3-.3,3.5-.4,2.4-.3,3.4-1.2,3.7-3.6.1-.7.2-1.4.2-2.1.2-3.3,1.7-5.9,4.5-7.8.9-.6,1.7-1.3,2.4-1.9,1-.9,1.3-2,.9-3.3-.3-1-.7-2-1.2-2.9-1.5-3-1.5-6,0-9,.5-.9.8-1.9,1.2-2.9.5-1.3.2-2.4-.9-3.3-.8-.7-1.7-1.4-2.6-2-2.4-1.7-3.9-3.8-4.2-6.8-.1-1.3-.3-2.6-.5-3.9-.3-1.4-1.1-2.2-2.5-2.5-.9-.2-1.9-.4-2.8-.4-3.4-.2-6.1-1.6-8-4.6-.5-.8-1.2-1.6-1.9-2.4-.9-1-2.1-1.3-3.4-.9-1,.3-1.9.7-2.9,1.2-3,1.5-6,1.5-9,0-1-.5-2-.8-3-1.2-1.2-.4-2.3-.2-3.1.8-.8.9-1.5,1.8-2.2,2.7-1.7,2.4-3.9,3.9-6.9,4.2-1.2.1-2.4.3-3.7.5-1.5.3-2.4,1.2-2.6,2.6-.2.9-.3,1.9-.4,2.8-.2,3.3-1.6,6-4.4,7.8-.9.6-1.8,1.3-2.6,2.1-1,.9-1.2,2-.8,3.2.3.9.6,1.9,1.1,2.8,1.6,3.1,1.6,6.2,0,9.3-.5.9-.8,1.9-1.1,2.8-.4,1.2-.2,2.3.8,3.1.8.8,1.7,1.5,2.7,2.1,2.4,1.7,4,3.9,4.3,6.9.1,1.3.3,2.5.5,3.8.3,1.5,1.2,2.4,2.6,2.6.9.2,1.9.3,2.8.4,3.3.2,5.9,1.6,7.8,4.4.6.9,1.3,1.8,2.1,2.6.9,1,2,1.2,3.2.8.9-.3,1.7-.6,2.5-1,3.3-1.7,6.5-1.7,9.9,0,1.1.6,2.3.9,3.6,1.4h0ZM45.8,81.6c-.8.3-1.5.4-2.1.7-2.6.8-4.7,0-6.4-1.9-.7-.8-1.4-1.7-2-2.6-1.3-1.9-3-2.9-5.2-3.1-.5,0-.9,0-1.1.6-2,5.4-4,10.7-6,16.1,0,.2,0,.4-.1.7,3.1-1,6.2-2,9.2-3,1.4-.5,1.8-.3,2.5.9,1.6,2.8,3.3,5.5,5,8.4,2.1-5.7,4.2-11.2,6.3-16.8h0ZM54.7,81.7c2.1,5.5,4.1,11,6.2,16.7.3-.4.4-.7.6-.9,1.4-2.4,2.9-4.8,4.3-7.2,1-1.6,1.2-1.7,3-1.1,2.7.9,5.5,1.8,8.2,2.7.2,0,.5,0,.7.1,0-.3,0-.4-.1-.5-2-5.4-4.1-10.8-6-16.2-.2-.6-.6-.7-1.1-.6-2.2.2-4,1.2-5.3,3.1-.8,1.1-1.6,2.1-2.5,3.1-1.1,1.2-2.5,2-4.2,1.8-1.3-.2-2.5-.5-3.9-.8h0Z"/>
        <path class="cls-3" d="M50.3,19.6c14.2,0,25.9,11.7,25.9,25.9,0,14.3-11.6,25.9-26,25.9-14.2,0-25.8-11.7-25.8-26,0-14.2,11.7-25.8,25.9-25.8ZM27.1,45.5c0,12.8,10.4,23.2,23.1,23.2,12.8,0,23.2-10.4,23.2-23.1,0-12.9-10.4-23.2-23.2-23.3-12.8,0-23.2,10.4-23.2,23.2Z"/>
        <path class="cls-3" d="M64.2,41.4c-.2.2-.4.7-.7,1-1.6,1.6-3.2,3.2-4.9,4.8-.5.4-.6.9-.5,1.5.4,2.3.8,4.5,1.2,6.8,0,.5-.1,1.2-.5,1.5-.4.3-1.1.3-1.6,0-2.1-1-4.2-2.2-6.3-3.2-.4-.2-.9-.2-1.3,0-2.1,1-4.1,2.1-6.1,3.2-.6.3-1.2.5-1.8,0-.6-.5-.6-1.1-.4-1.8.4-2.3.8-4.5,1.2-6.8,0-.4-.1-.9-.4-1.2-1.6-1.6-3.3-3.2-4.9-4.8-.5-.5-.9-1-.7-1.7.2-.7.8-.9,1.5-1,2.2-.3,4.4-.6,6.5-.9.7,0,1.1-.3,1.5-1,.9-2,1.9-4,2.9-5.9.3-.6.7-1.1,1.4-1.1.7,0,1.1.5,1.4,1.1.9,1.9,1.9,3.8,2.8,5.7.4.9.9,1.2,1.9,1.3,2.2.2,4.4.6,6.5.9.8.1,1.2.5,1.3,1.6h0ZM56.2,53.6c-.3-2-.6-3.7-.9-5.4-.2-.9,0-1.5.7-2.2,1.3-1.2,2.4-2.5,3.6-3.8,0,0-.3-.1-.4-.1-1.5-.2-3-.5-4.5-.6-1-.1-1.7-.5-2.1-1.5-.4-1-1-2-1.4-3-.3-.6-.6-1.1-.9-1.8-.9,1.8-1.7,3.4-2.5,5.1-.3.6-.8,1-1.5,1.1-1.2.1-2.3.3-3.5.5-.7.1-1.3.2-1.9.3,1.2,1.2,2.2,2.5,3.4,3.6.9.8,1.1,1.7.9,2.9-.3,1.6-.6,3.2-.9,5,1.7-.9,3.2-1.6,4.7-2.5.9-.5,1.7-.5,2.6,0,1.5.8,3,1.6,4.7,2.5h0Z"/>
      </g>
    </g>
  </g>
</svg>