<svg width="40" height="40" viewBox="0 0 40 40" fill="none" xmlns="http://www.w3.org/2000/svg">
<g id="&#240;&#159;&#166;&#134; icon &#34;call&#34;">
<path id="Vector" d="M30.0274 39.4273C27.9667 39.4273 25.7965 38.9417 23.5534 38.0066C21.3651 37.0894 19.1585 35.8306 17.0066 34.302C14.8729 32.7554 12.8122 31.029 10.8609 29.1407C8.92784 27.2165 7.17714 25.1843 5.62705 23.0982C4.05871 20.9402 2.8004 18.7822 1.90682 16.6961C0.958522 14.4661 0.484375 12.3081 0.484375 10.276C0.484375 8.87327 0.739685 7.54249 1.23207 6.30162C1.74269 5.02479 2.56333 3.83788 3.67575 2.81282C5.07995 1.44607 6.68476 0.762695 8.39898 0.762695C9.1102 0.762695 9.83966 0.924547 10.4597 1.21228C11.1709 1.53599 11.7727 2.02154 12.2104 2.66895L16.4412 8.54956C16.8242 9.07108 17.116 9.57462 17.3166 10.0782C17.5537 10.6177 17.6813 11.1572 17.6813 11.6787C17.6813 12.3621 17.4807 13.0275 17.0978 13.6569C16.8242 14.1424 16.4048 14.664 15.8759 15.1855L14.6358 16.4623C14.6541 16.5163 14.6723 16.5522 14.6905 16.5882C14.9094 16.9659 15.3471 17.6133 16.1859 18.5844C17.0795 19.5914 17.9184 20.5086 18.7573 21.3538C19.8332 22.3969 20.7268 23.2241 21.5657 23.9075C22.6052 24.7707 23.2799 25.2023 23.6811 25.4001L23.6446 25.49L24.9759 24.1952C25.5412 23.6377 26.0883 23.2241 26.6172 22.9544C27.6202 22.3429 28.8967 22.235 30.1733 22.7565C30.6474 22.9544 31.158 23.2241 31.7051 23.6018L37.7596 27.8459C38.4344 28.2955 38.9268 28.871 39.2185 29.5543C39.4921 30.2377 39.6197 30.8671 39.6197 31.4965C39.6197 32.3598 39.4191 33.223 39.0362 34.0322C38.6532 34.8415 38.1791 35.5428 37.5773 36.1902C36.5378 37.3232 35.4071 38.1325 34.0941 38.654C32.8358 39.1575 31.4681 39.4273 30.0274 39.4273ZM8.39898 3.46022C7.39598 3.46022 6.46592 3.89183 5.57234 4.75504C4.73346 5.52833 4.1499 6.37356 3.78517 7.29072C3.4022 8.22586 3.21984 9.21495 3.21984 10.276C3.21984 11.9485 3.62104 13.7648 4.42344 15.6351C5.24408 17.5413 6.39298 19.5195 7.85189 21.4977C9.3108 23.4759 10.9703 25.4001 12.794 27.2165C14.6176 28.9968 16.5871 30.6513 18.6114 32.108C20.5809 33.5287 22.6052 34.6796 24.6112 35.5069C27.7296 36.8197 30.6474 37.1254 33.0546 36.1363C33.9847 35.7586 34.8053 35.1832 35.553 34.3559C35.9725 33.9063 36.3007 33.4208 36.5743 32.8453C36.7931 32.3957 36.9025 31.9282 36.9025 31.4606C36.9025 31.1728 36.8478 30.8851 36.7019 30.5614C36.6472 30.4535 36.5378 30.2557 36.1913 30.0219L30.1368 25.7778C29.7721 25.526 29.4438 25.3462 29.1338 25.2203C28.7326 25.0584 28.5685 24.8966 27.9484 25.2742C27.5837 25.4541 27.2554 25.7238 26.8907 26.0835L25.5047 27.4323C24.7935 28.1156 23.6993 28.2775 22.8605 27.9718L22.3681 27.756C21.6204 27.3603 20.745 26.7489 19.7785 25.9396C18.9032 25.2023 17.9549 24.3391 16.806 23.2241C15.9124 22.3249 15.0188 21.3718 14.0887 20.3108C13.2316 19.3217 12.6116 18.4765 12.2286 17.7751L12.0098 17.2356C11.9004 16.822 11.8639 16.5882 11.8639 16.3364C11.8639 15.689 12.101 15.1136 12.5569 14.664L13.9246 13.2612C14.2893 12.9016 14.5629 12.5599 14.7453 12.2542C14.8911 12.0204 14.9459 11.8226 14.9459 11.6427C14.9459 11.4989 14.8912 11.2831 14.8 11.0673C14.6723 10.7795 14.4717 10.4558 14.2164 10.1141L9.98555 4.21553C9.80319 3.96376 9.58435 3.78393 9.3108 3.65804C9.01902 3.53216 8.709 3.46022 8.39898 3.46022ZM23.6446 25.508L23.3528 26.7309L23.8452 25.4721C23.7541 25.4541 23.6811 25.4721 23.6446 25.508Z" fill="white"/>
</g>
</svg>
