<svg width="99" height="99" viewBox="0 0 99 99" fill="none" xmlns="http://www.w3.org/2000/svg">
<g style="mix-blend-mode:overlay">
<path d="M59.6811 12.6427C59.5049 12.5836 59.3187 12.56 59.1333 12.5732C58.9479 12.5865 58.767 12.6364 58.601 12.7201C58.435 12.8037 58.2873 12.9194 58.1663 13.0606C58.0453 13.2017 57.9536 13.3654 57.8963 13.5422C57.8378 13.7185 57.8147 13.9045 57.8282 14.0897C57.8418 14.2749 57.8917 14.4556 57.9751 14.6215C58.0585 14.7874 58.1738 14.9353 58.3144 15.0566C58.4549 15.1779 58.618 15.2703 58.7944 15.3285C76.0447 21.0239 87.6322 36.8316 87.6322 54.6645C87.6322 60.7884 86.2363 66.8176 83.6014 72.3093L80.6823 61.6384C80.5834 61.2764 80.3448 60.9686 80.019 60.7825C79.6932 60.5964 79.3068 60.5474 78.9448 60.6463C78.5828 60.7451 78.2749 60.9837 78.0889 61.3095C77.9028 61.6354 77.8538 62.0218 77.9526 62.3837L81.8137 76.4985C81.8609 76.6639 81.9381 76.8192 82.0414 76.9567C82.0556 76.9779 82.0782 76.9921 82.0937 77.0119C82.1871 77.125 82.2932 77.224 82.4162 77.3018C82.4346 77.3145 82.4445 77.3343 82.4657 77.3456C82.5195 77.3782 82.5789 77.3937 82.6354 77.4164C82.6779 77.4361 82.7189 77.4588 82.7641 77.4729C82.9027 77.5154 83.0427 77.5436 83.1828 77.5436C83.316 77.542 83.4484 77.5215 83.576 77.4828L97.9454 73.7109C98.3079 73.6158 98.6178 73.3806 98.8069 73.057C98.996 72.7334 99.0489 72.348 98.9538 71.9854C98.8587 71.6229 98.6235 71.313 98.2999 71.1239C97.9763 70.9348 97.5908 70.882 97.2283 70.977L85.9661 73.9315C88.9197 67.9379 90.4579 61.3463 90.4622 54.6645C90.4622 35.6096 78.0927 18.7214 59.6811 12.6427ZM0 54.6645C0 56.9132 0.172546 59.1634 0.511981 61.3584C0.569559 61.7291 0.772072 62.0619 1.07497 62.2833C1.37787 62.5048 1.75634 62.5969 2.12713 62.5393C2.49791 62.4817 2.83064 62.2792 3.05211 61.9763C3.27358 61.6734 3.36565 61.295 3.30808 60.9242C2.98862 58.8529 2.82833 56.7602 2.82862 54.6645C2.82862 32.9776 19.9135 15.1333 41.5992 13.323L33.6932 21.0663C33.4475 21.3335 33.3138 21.6848 33.3195 22.0477C33.3252 22.4106 33.4699 22.7574 33.7238 23.0168C33.9777 23.2761 34.3214 23.4282 34.6841 23.4416C35.0468 23.455 35.4009 23.3287 35.6732 23.0888L46.2211 12.7573L46.224 12.7517C46.3576 12.6205 46.4638 12.464 46.5363 12.2914C46.6088 12.1187 46.6461 11.9333 46.6461 11.7461C46.6461 11.5588 46.6088 11.3734 46.5363 11.2008C46.4638 11.0281 46.3576 10.8717 46.224 10.7405L46.2211 10.7349L35.6732 0.401969C35.4044 0.140576 35.0431 -0.00389452 34.6682 7.98825e-05C34.2933 0.00405428 33.9351 0.156151 33.6719 0.423184C33.4097 0.691441 33.2645 1.05275 33.2682 1.42789C33.2719 1.80304 33.4242 2.16141 33.6917 2.42442L41.9018 10.4647C18.5119 12.1421 0 31.3186 0 54.6645ZM23.0618 80.2676C23.1089 80.0881 23.1202 79.901 23.095 79.7172C23.0698 79.5333 23.0087 79.3562 22.915 79.196C22.8214 79.0357 22.6971 78.8955 22.5492 78.7833C22.4014 78.6711 22.2329 78.5892 22.0534 78.5421L7.64436 74.7589C7.46433 74.7108 7.27651 74.6992 7.09193 74.7247C6.90735 74.7502 6.72972 74.8123 6.56948 74.9074C6.56665 74.9102 6.56241 74.9088 6.55958 74.9116C6.48038 74.9583 6.43088 75.029 6.3644 75.087C6.29793 75.1464 6.22156 75.1931 6.1664 75.2652C6.0426 75.4237 5.95433 75.607 5.90758 75.8026L2.06065 89.8679C1.96922 90.2272 2.02257 90.6081 2.20921 90.9285C2.39586 91.2489 2.70087 91.4832 3.05856 91.5809C3.41626 91.6786 3.79803 91.632 4.12165 91.451C4.44528 91.27 4.68488 90.9691 4.78886 90.6132L7.81125 79.5633C16.1882 91.6244 30.238 99 45.2311 99C56.0732 99 66.5589 95.1814 74.7563 88.2513C74.905 88.1337 75.0285 87.9874 75.1195 87.8211C75.2106 87.6549 75.2672 87.472 75.2862 87.2833C75.3051 87.0947 75.286 86.9042 75.2298 86.7231C75.1737 86.5421 75.0817 86.3741 74.9593 86.2293C74.837 86.0845 74.6868 85.9658 74.5177 85.8802C74.3485 85.7945 74.1639 85.7438 73.9747 85.731C73.7856 85.7181 73.5958 85.7434 73.4167 85.8054C73.2375 85.8674 73.0726 85.9647 72.9318 86.0917C65.2422 92.5918 55.4043 96.1714 45.2297 96.1714C31.3652 96.1714 18.3762 89.4464 10.4871 78.4304L21.3335 81.276C21.513 81.3233 21.7001 81.3347 21.884 81.3096C22.068 81.2845 22.2451 81.2234 22.4054 81.1297C22.5657 81.0361 22.7059 80.9117 22.8181 80.7638C22.9302 80.6158 23.0121 80.4472 23.0589 80.2676H23.0618Z" fill="white"/>
</g>
<g style="mix-blend-mode:overlay">
<path d="M21.159 42.7446C21.1308 42.801 21.1012 42.8518 21.0786 42.9124C19.0572 46.8002 18.0013 51.1174 18 55.4993C18 60.0376 19.124 64.3136 21.08 68.0904C21.0997 68.1468 21.1279 68.1933 21.1547 68.2455C25.7592 77.0048 34.9372 83 45.5 83C56.0318 83 65.1886 77.0415 69.8072 68.3245C69.8651 68.234 69.9119 68.137 69.9468 68.0354C71.9514 64.1611 72.9983 59.8629 73 55.5007C73 50.9624 71.876 46.6892 69.9214 42.9124C69.8988 42.8518 69.8692 42.7996 69.841 42.7446C65.2337 33.9909 56.0586 28 45.5 28C34.9414 28 25.7663 33.9909 21.159 42.7446ZM70.109 54.0904H59.5462C59.4644 50.7988 59.1146 47.6679 58.511 44.8036H67.7059C69.1115 47.7104 69.9291 50.8667 70.109 54.0904ZM67.7073 66.195H58.5124C59.1146 63.3321 59.4644 60.2012 59.5462 56.911H70.109C69.9287 60.1338 69.1125 63.2891 67.7073 66.195ZM20.8924 56.911H31.4538C31.5356 60.2012 31.8854 63.3306 32.4876 66.195H23.2927C21.888 63.289 21.0722 60.1337 20.8924 56.911ZM23.2941 44.8036H32.489C31.8854 47.6679 31.5356 50.7988 31.4538 54.0904H20.891C21.08 50.7762 21.9205 47.6426 23.2941 44.8036ZM44.0897 44.8036V54.0904H34.2729C34.3492 50.9653 34.7294 47.8551 35.4082 44.8036H44.0897ZM36.1444 41.983C37.9326 36.143 40.8165 31.9925 44.0897 31.0462V41.983H36.1444ZM34.2744 56.911H44.0897V66.195H35.4068C34.7287 63.1444 34.3489 60.0351 34.2729 56.911H34.2744ZM44.0912 69.0155V79.9552C40.8179 79.0103 37.9326 74.8584 36.1458 69.0155H44.0912ZM46.9117 79.9552V69.0155H54.857C53.0703 74.8584 50.1849 79.0103 46.9117 79.9552ZM46.9117 66.195V56.911H56.7285C56.6525 60.0351 56.2727 63.1444 55.5946 66.195H46.9117ZM56.7285 54.0904H46.9103V44.8036H55.5932C56.2715 47.8551 56.6513 50.9654 56.727 54.0904H56.7285ZM46.9103 41.983V31.0462C50.1835 31.9911 53.0674 36.143 54.8556 41.983H46.9103ZM38.1737 31.9305C36.0894 34.3703 34.3688 37.8199 33.1885 41.983H24.8764C27.9846 37.2557 32.661 33.6482 38.1737 31.9305ZM24.875 69.0155H33.187C34.3674 73.1801 36.0879 76.6311 38.1737 79.0709C32.661 77.3532 27.9832 73.7442 24.875 69.0155ZM52.8263 79.0709C54.912 76.6311 56.6326 73.1801 57.8129 69.0155H66.125C63.0168 73.7442 58.339 77.3532 52.8263 79.0709ZM66.125 41.983H57.8115C56.6312 37.8199 54.9106 34.3703 52.8263 31.9305C58.3376 33.6482 63.0154 37.2557 66.125 41.983Z" fill="white"/>
</g>
</svg>
