<svg width="40" height="35" viewBox="0 0 40 35" fill="none" xmlns="http://www.w3.org/2000/svg">
<g id="&#240;&#159;&#166;&#134; icon &#34;map&#34;">
<g id="Group">
<path id="Vector" d="M26.0538 34.9594C25.2619 34.9594 24.4701 34.796 23.8256 34.4873L14.1577 29.7113C13.6052 29.4389 12.5188 29.4571 11.9847 29.7658L7.63882 32.2173C5.7605 33.2706 3.82694 33.4159 2.37217 32.5624C0.898981 31.727 0.0703125 30.02 0.0703125 27.8772V10.2261C0.0703125 8.5736 1.1752 6.70317 2.62998 5.886L10.6036 1.38244C11.9479 0.619744 13.9919 0.565265 15.3731 1.25533L25.0409 6.03127C25.5934 6.30367 26.6614 6.26735 27.2139 5.97679L31.5414 3.54342C33.4197 2.49017 35.3533 2.3449 36.808 3.19839C38.2812 4.03373 39.1099 5.74072 39.1099 7.88354V25.5528C39.1099 27.2053 38.005 29.0757 36.5502 29.8929L28.5766 34.3965C27.8768 34.7597 26.9561 34.9594 26.0538 34.9594ZM13.1449 26.8058C13.9367 26.8058 14.7285 26.9692 15.3731 27.278L25.0409 32.0539C25.5934 32.3263 26.6614 32.29 27.2139 31.9994L35.1875 27.4959C35.7768 27.169 36.3477 26.1884 36.3477 25.5346V7.86538C36.3477 6.72133 36.0162 5.86784 35.4085 5.54097C34.8192 5.2141 33.8985 5.34121 32.9041 5.90416L28.5766 8.33753C27.2323 9.10023 25.1883 9.15471 23.8071 8.46464L14.1393 3.6887C13.5868 3.41631 12.5188 3.45263 11.9663 3.74318L3.99268 8.24673C3.4034 8.5736 2.83254 9.55422 2.83254 10.2261V27.8954C2.83254 29.0394 3.16401 29.8929 3.75328 30.2198C4.34256 30.5648 5.2633 30.4195 6.27612 29.8566L10.6036 27.4232C11.3218 27.0056 12.2425 26.8058 13.1449 26.8058Z" fill="white"/>
<path id="Vector_2" d="M12.9983 28.3127C12.2433 28.3127 11.6172 27.6953 11.6172 26.9507V3.34341C11.6172 2.59887 12.2433 1.98145 12.9983 1.98145C13.7533 1.98145 14.3794 2.59887 14.3794 3.34341V26.9507C14.3794 27.6953 13.7533 28.3127 12.9983 28.3127Z" fill="white"/>
<path id="Vector_3" d="M26.2053 33.761C25.4503 33.761 24.8242 33.1436 24.8242 32.3991V8.10171C24.8242 7.35717 25.4503 6.73975 26.2053 6.73975C26.9603 6.73975 27.5864 7.35717 27.5864 8.10171V32.3991C27.5864 33.1436 26.9603 33.761 26.2053 33.761Z" fill="white"/>
</g>
</g>
</svg>
