<svg width="94" height="92" viewBox="0 0 94 92" fill="none" xmlns="http://www.w3.org/2000/svg">
<g style="mix-blend-mode:overlay">
<path d="M0 49.9769C0.0511101 49.529 0.141161 49.0836 0.148463 48.6358C0.233646 44.3182 0.260418 39.9982 0.404013 35.6806C0.447822 34.3931 0.62549 33.0545 1.04897 31.8474C1.78399 29.7543 3.28321 28.3573 5.60994 28.2064C7.98048 28.0531 9.81314 29.1531 10.7915 31.2341C11.4608 32.6554 11.7626 34.2885 12.0109 35.8632C12.8773 41.3563 13.6488 46.864 14.4593 52.3644C14.4666 52.4204 14.508 52.4715 14.5761 52.6102C15.1043 52.547 15.6616 52.4423 16.2238 52.4204C18.0492 52.3523 19.6725 52.9242 21.1815 53.9537C25.2216 56.7137 29.2301 59.532 33.3652 62.1435C36.4585 64.0979 38.0892 66.8408 38.6928 70.3406C39.5811 75.4905 40.4865 80.638 41.3821 85.7856C41.5525 86.7664 41.2093 87.4284 40.4597 87.5866C39.6322 87.7594 39.0505 87.2848 38.8704 86.265C37.9626 81.0883 37.0475 75.9116 36.1592 70.7324C35.6895 67.9871 34.4385 65.8599 32.0047 64.3096C27.7747 61.6178 23.6737 58.7216 19.507 55.9324C17.3701 54.5038 14.654 54.7228 12.9698 56.4046C11.1347 58.2372 11.3343 60.6224 13.4736 62.0802C16.2627 63.9786 19.0689 65.8551 21.8654 67.7413C22.0917 67.8946 22.3254 68.0406 22.5371 68.2134C23.1115 68.688 23.2235 69.2794 22.8535 69.9171C22.503 70.5231 21.7583 70.6959 21.0987 70.2846C20.0668 69.6421 19.0714 68.9411 18.0638 68.2621C16.0729 66.9211 14.0747 65.5873 12.0936 64.2293C8.4502 61.7346 8.16545 57.215 11.4973 54.2944C11.9963 53.8588 12.0571 53.4815 11.9671 52.8877C11.0641 46.9078 10.2172 40.9206 9.28743 34.9456C9.13167 33.9502 8.84448 32.8866 8.30417 32.0616C7.00208 30.0756 4.46848 30.3311 3.52903 32.5045C3.1883 33.2931 2.99846 34.2033 2.97412 35.0624C2.80132 41.478 2.76725 47.8984 2.53117 54.309C2.3389 59.5417 4.0596 63.9591 7.63244 67.7145C9.58193 69.7638 11.4511 71.8958 13.4979 73.8428C15.6275 75.8678 16.9783 78.2894 17.6914 81.0737C18.4751 84.1306 19.1395 87.2215 19.838 90.3003C20.023 91.1156 19.6287 91.7825 18.9424 91.9529C18.1879 92.1403 17.5454 91.7192 17.3482 90.8552C16.7252 88.1318 16.1484 85.3962 15.5058 82.6776C14.8146 79.7448 13.4371 77.2502 11.2004 75.123C8.80554 72.845 6.62241 70.3308 4.45145 67.8289C1.93975 64.9326 0.374807 61.5862 0.143595 57.6945C0.136294 57.5533 0.0511101 57.4146 0.00243381 57.2759C0.00243381 54.8421 0.00243381 52.4082 0.00243381 49.9744L0 49.9769Z" fill="white"/>
<path d="M93.4584 57.2807C93.3149 58.1423 93.1907 59.0087 93.0277 59.8654C92.4655 62.8396 91.0806 65.4364 89.1214 67.6902C86.8287 70.3284 84.502 72.9496 82.0074 75.3907C80.0384 77.3183 78.7509 79.5307 78.1133 82.1543C77.4245 84.9873 76.8039 87.8348 76.1492 90.6751C75.9155 91.6924 75.3241 92.1524 74.5209 91.9553C73.7762 91.7728 73.4501 91.101 73.6691 90.1275C74.3481 87.1363 74.9955 84.1379 75.7427 81.1662C76.468 78.2797 77.9039 75.8191 80.0846 73.7163C82.3992 71.482 84.5361 69.0555 86.6924 66.6631C89.6106 63.4237 90.9906 59.5929 90.9029 55.229C90.7666 48.4776 90.6571 41.7262 90.477 34.9773C90.4527 34.0938 90.2166 33.1543 89.8394 32.3512C88.9267 30.4041 86.6073 30.1194 85.3271 31.8523C84.7259 32.6651 84.356 33.7531 84.1954 34.7655C83.2364 40.8598 82.3749 46.9662 81.4622 53.0678C81.3867 53.574 81.5036 53.8831 81.9003 54.2336C85.3149 57.2467 85.035 61.7371 81.2869 64.2877C78.398 66.2566 75.4896 68.1964 72.5958 70.1556C72.0433 70.528 71.413 70.7227 70.9335 70.2238C70.6317 69.9098 70.4589 69.3111 70.5051 68.8706C70.5392 68.5396 70.9724 68.1891 71.3059 67.9603C73.9904 66.1228 76.6895 64.3072 79.3886 62.494C81.5157 61.0629 82.129 59.7778 81.5109 57.9987C80.8513 56.1052 78.7241 54.7544 76.5726 55.0295C75.6989 55.1414 74.7643 55.431 74.0342 55.9105C69.5146 58.8846 65.0485 61.9391 60.5581 64.957C58.5283 66.3224 57.7228 68.3838 57.3187 70.6521C56.3866 75.8872 55.4909 81.1272 54.5734 86.3648C54.4152 87.2726 53.8603 87.7131 53.0839 87.6036C52.3319 87.4965 51.8962 86.8565 52.052 85.9657C53.0036 80.4872 53.9406 75.0086 54.9506 69.5399C55.525 66.4319 57.1654 64.0467 59.8742 62.309C63.761 59.8143 67.5846 57.215 71.3667 54.5622C73.6545 52.9559 76.0129 51.9263 78.9407 52.6881C79.2206 50.8141 79.4932 49.0228 79.7585 47.2291C80.4302 42.69 81.0703 38.1461 81.7786 33.6119C82.3018 30.2678 84.8987 27.9922 87.8412 28.1942C90.4064 28.3719 92.4557 30.5039 92.8938 33.4999C93.0106 34.308 93.052 35.133 93.069 35.9532C93.1591 40.2708 93.2272 44.5884 93.3149 48.9084C93.3222 49.2662 93.4073 49.6215 93.456 49.9793V57.2807H93.4584Z" fill="white"/>
<path d="M76.0664 18.7024C74.8033 19.1478 73.5377 19.5566 72.3135 20.0653C72.1163 20.1456 72.0238 20.6762 72.0238 20.9975C72.0068 27.2037 71.9168 33.4123 72.0531 39.6161C72.1212 42.7022 70.7802 44.7734 68.3099 46.3116C65.3722 48.1418 62.1012 49.0861 58.745 49.7019C49.5208 51.3958 40.3088 51.5345 31.1504 49.2346C28.9015 48.6699 26.7525 47.8278 24.8322 46.4868C22.5882 44.9194 21.3932 42.8628 21.4322 40.0226C21.5125 33.848 21.4322 27.671 21.4833 21.494C21.493 20.4547 21.2277 19.9753 20.1982 19.637C16.5061 18.4249 12.8554 17.0912 9.19251 15.794C8.85664 15.6747 8.48913 15.5335 8.23602 15.2975C7.47667 14.5844 7.83201 13.5256 8.96373 13.1241C12.4563 11.8877 15.9536 10.6683 19.4486 9.43927C28.1836 6.36536 36.921 3.29632 45.651 0.200511C46.4177 -0.072076 47.0967 -0.0623407 47.8536 0.202945C59.9375 4.46942 72.0263 8.71643 84.1126 12.9707C84.3122 13.0413 84.5726 13.0681 84.6967 13.2068C85.035 13.5889 85.5534 14.0221 85.551 14.431C85.5461 14.8423 85.0837 15.4508 84.6748 15.6187C82.993 16.3099 81.2626 16.894 79.5297 17.4587C78.9407 17.651 78.7266 17.9211 78.7412 18.5539C78.785 20.4401 78.7704 22.3263 78.7485 24.2125C78.7436 24.709 78.8604 25.0278 79.3204 25.3199C80.715 26.2034 81.2748 27.7951 80.8099 29.287C80.3694 30.7011 78.9992 31.7135 77.5097 31.7208C75.9837 31.7306 74.5794 30.6986 74.1486 29.2481C73.7105 27.7732 74.2532 26.2229 75.6016 25.3491C76.0421 25.0619 76.2173 24.7747 76.2076 24.2588C76.1759 22.5259 76.1905 20.7906 76.1808 19.0577C76.1808 18.9725 76.1321 18.8873 76.0737 18.6975L76.0664 18.7024ZM13.089 14.4383C13.476 14.5844 13.7218 14.6793 13.9701 14.7669C24.5036 18.476 35.042 22.1754 45.5659 25.9113C46.3958 26.2058 47.0967 26.1936 47.9169 25.904C56.097 23.0005 64.2892 20.1334 72.4765 17.2542C75.0637 16.344 77.6435 15.424 80.367 14.4578C80.0919 14.3239 79.9678 14.2461 79.8315 14.1974C68.984 10.3739 58.1365 6.5479 47.2817 2.74871C46.9239 2.62459 46.4396 2.66597 46.0721 2.79496C35.3876 6.53086 24.7081 10.2887 14.0309 14.0465C13.7535 14.1438 13.4882 14.2728 13.089 14.4383ZM24.0096 21.0242C24.0096 21.528 24.0096 21.8834 24.0096 22.2387C24.0096 26.0695 24.068 29.9028 23.9852 33.7312C23.9439 35.7123 24.7592 37.0996 26.3363 38.1631C28.1787 39.4044 30.228 40.1637 32.3648 40.6505C41.9614 42.8336 51.5433 42.6024 61.079 40.2684C63.5006 39.677 65.8444 38.8203 67.845 37.2334C68.9378 36.367 69.4902 35.2985 69.4708 33.8553C69.4197 29.9344 69.4537 26.0111 69.4513 22.0878C69.4513 21.7763 69.4148 21.4623 69.388 21.0656C68.9475 21.2141 68.6335 21.3138 68.322 21.4234C61.4781 23.8255 54.6318 26.2229 47.7977 28.6469C47.07 28.9049 46.4299 28.922 45.6948 28.6591C40.2358 26.7096 34.7646 24.7966 29.2958 22.8739C27.5848 22.2728 25.8739 21.6765 24.012 21.0242H24.0096ZM24.0899 39.7889C23.7784 41.5656 24.3381 43.0429 25.7595 43.9386C27.3609 44.9462 29.0792 45.8662 30.8681 46.4576C35.3511 47.9373 40.0216 48.317 44.7213 48.3633C50.5235 48.4217 56.2625 47.9349 61.8602 46.314C64.0263 45.6861 66.1365 44.8999 67.9107 43.4397C69.3321 42.2714 69.7458 41.0277 69.3467 39.6356C67.497 40.4631 65.6813 41.4731 63.7416 42.1108C56.7176 44.4156 49.4551 44.9559 42.122 44.5689C35.816 44.2355 29.5854 43.4859 24.0899 39.7889ZM77.3028 29.3187C77.4464 29.3114 77.5924 29.3041 77.736 29.2992C77.9478 28.9293 78.3518 28.5423 78.3177 28.1967C78.2885 27.8876 77.719 27.3521 77.4926 27.4008C77.1349 27.4763 76.6578 27.9363 76.6189 28.277C76.5824 28.5934 77.0545 28.9682 77.3004 29.3187H77.3028Z" fill="white"/>
</g>
</svg>
