<svg width="101" height="106" viewBox="0 0 101 106" fill="none" xmlns="http://www.w3.org/2000/svg">
<g style="mix-blend-mode:overlay">
<path d="M57.7683 105.589C55.7913 105.385 53.806 105.234 51.8372 104.973C43.2004 103.818 35.2538 100.991 28.4537 95.346C25.7343 93.0885 22.5061 92.0271 18.9645 92.1179C18.9645 93.0913 18.9728 94.0729 18.9645 95.0546C18.948 96.5284 18.3623 97.1223 16.894 97.1251C12.2552 97.1333 7.61647 97.1306 2.97772 97.1251C1.69911 97.1251 0.91544 96.4844 0.91269 95.4753C0.91269 94.4606 1.68536 93.8309 2.97222 93.8309C6.78606 93.8254 10.5999 93.8309 14.4165 93.8309C14.7877 93.8309 15.1589 93.8309 15.5989 93.8309V65.2093C15.2167 65.2093 14.8537 65.2093 14.4907 65.2093C10.6081 65.2093 6.72557 65.2175 2.84023 65.2038C1.38839 65.1983 0.461738 64.0654 1.09967 62.9682C1.38839 62.4733 2.14731 61.9646 2.7 61.9564C7.50923 61.8766 12.3212 61.8959 17.1332 61.9206C18.3321 61.9261 18.9398 62.5888 18.9618 63.8152C18.9865 65.1158 18.9673 66.4191 18.9673 67.805C19.3165 67.8325 19.6107 67.871 19.9049 67.8765C24.4392 67.9425 28.9762 68.0195 33.5104 68.0607C38.0557 68.1019 42.2655 69.2706 46.0738 71.7618C50.7291 74.8057 55.3623 77.8854 59.9956 80.9623C62.7233 82.7744 63.8232 85.3371 63.386 88.5955C68.7012 89.3819 73.8376 88.7715 78.8641 87.1244C83.3378 85.6588 87.4294 83.415 91.2212 80.6571C93.19 79.2245 95.1726 78.9495 97.2733 80.1402C99.5033 81.4078 100.903 83.2638 100.895 85.9475C100.892 87.1821 100.389 88.238 99.5061 89.0629C91.5787 96.4816 82.7192 102.259 71.8826 104.409C69.1989 104.942 66.4437 105.099 63.7214 105.435C63.5207 105.459 63.3282 105.536 63.1303 105.589H57.7683ZM19.0305 88.7192C19.4265 88.755 19.7949 88.799 20.1689 88.8182C24.1037 89.0217 27.6178 90.3361 30.648 92.8603C34.9155 96.4157 39.7908 98.7584 45.1114 100.26C51.092 101.948 57.1936 102.383 63.3722 102.088C67.4693 101.893 71.4811 101.313 75.4269 100.117C83.6513 97.6255 90.4431 92.83 96.7179 87.1656C97.8398 86.151 97.8893 85.2574 96.9324 84.0502C95.8517 82.6864 94.5814 82.3949 93.3853 83.1896C91.9004 84.1795 90.4238 85.1886 88.8895 86.0988C80.7201 90.952 71.9733 93.1793 62.4483 91.8566C62.0661 91.8044 61.5354 92.0574 61.2302 92.3378C58.673 94.6806 55.2139 95.0216 52.3129 93.1325C50.4129 91.8951 48.5348 90.6248 46.6568 89.3599C45.5761 88.6312 45.2929 87.7018 45.8704 86.8549C46.4451 86.0135 47.4184 85.9228 48.4991 86.635C50.3909 87.8833 52.2662 89.1592 54.1635 90.3993C55.5548 91.3067 57.2844 91.2902 58.486 90.2783C58.9287 89.9044 59.0909 89.2032 59.5281 88.8127C60.2211 88.1913 60.2651 87.4461 60.1606 86.6542C59.9901 85.3426 59.2477 84.4022 58.156 83.6818C53.6245 80.6956 49.1013 77.7012 44.5807 74.7012C41.1931 72.452 37.4645 71.3713 33.4032 71.3521C30.0348 71.3356 26.6692 71.2641 23.3008 71.2256C21.9012 71.2091 20.5016 71.2256 19.0387 71.2256V88.7165L19.0305 88.7192Z" fill="white"/>
</g>
<g style="mix-blend-mode:overlay">
<path d="M89.324 0C89.9289 0.46745 90.2809 1.03664 90.1929 1.85055C89.7557 5.88437 89.049 9.85219 87.8034 13.7348C85.7163 20.2488 78.7486 22.0774 73.8294 18.9015C70.9422 22.1819 69.4546 25.9957 69.3171 30.475C76.8101 31.3109 82.6477 34.803 86.5358 41.2703C89.2965 45.8651 90.1984 50.8888 89.2195 56.1462C87.1517 67.2743 77.4177 74.902 66.3227 74.2145C55.3624 73.5354 46.4561 64.6373 45.8209 53.7705C45.128 41.9248 53.795 31.6629 65.8827 30.486C65.638 27.882 64.6179 25.6437 63.1468 23.8619C61.4887 24.1287 60.0204 24.5906 58.5603 24.5549C55.6786 24.4861 53.5366 23.0645 52.4037 20.3396C51.0563 17.1032 50.5889 13.6633 50.2039 10.2152C50.0884 9.17852 50.9903 8.30136 52.0462 8.50484C55.3074 9.12627 58.6318 9.59922 61.7719 10.6221C65.7425 11.9172 67.4473 16.4212 65.7012 20.2571C65.3328 21.0655 65.4373 21.5467 65.9735 22.1379C66.4024 22.6136 66.7379 23.18 66.9414 23.4632C68.3162 21.3295 69.7433 19.1654 71.1017 16.9602C71.2667 16.6907 71.1979 16.1325 71.0302 15.8191C68.9926 12.0685 69.6856 7.38021 72.7927 4.46552C74.3161 3.03842 76.2629 2.373 78.2234 1.88355C80.8164 1.23462 83.4533 0.761668 86.0711 0.211727C86.3323 0.156733 86.588 0.074242 86.8492 0.0027497C87.6741 0.0027497 88.4991 0.0027497 89.324 0.0027497V0ZM67.6673 33.8104C57.3861 33.8076 49.1123 42.0512 49.1013 52.3131C49.0875 62.608 57.4054 70.9396 67.6948 70.9396C77.9347 70.9396 86.2415 62.6383 86.2553 52.3901C86.2663 42.054 78.0227 33.8131 67.67 33.8076L67.6673 33.8104ZM86.7007 3.46738C83.2966 3.99257 80.0657 4.55076 76.9943 5.76888C74.2528 6.85501 72.8862 9.20051 73.2299 12.1372C73.4994 14.4469 75.4187 16.5147 77.7752 17.0372C80.0162 17.5321 82.7027 16.49 83.7696 14.5542C85.6421 11.1528 86.0628 7.35546 86.7007 3.46738ZM53.5751 12.0162C54.191 14.4112 54.6474 16.6137 55.3349 18.742C55.9948 20.7768 57.8096 21.6594 59.9214 21.2305C61.5299 20.9033 62.7123 19.6246 62.9955 17.8978C63.2568 16.3085 62.5941 14.6449 61.3155 13.9932C58.9947 12.8136 56.4567 12.4534 53.5723 12.0135L53.5751 12.0162Z" fill="white"/>
</g>
<g style="mix-blend-mode:overlay">
<path d="M75.4407 43.2433C75.4407 42.9008 75.1629 42.6204 74.8234 42.6204H61.7596C61.4201 42.6204 61.1422 42.9008 61.1422 43.2433C61.1422 43.5859 61.4201 43.8662 61.7596 43.8662H65.5009C68.0445 43.8662 70.1436 45.7971 70.4461 48.2264H61.7596C61.4201 48.2264 61.1422 48.5067 61.1422 48.8493C61.1422 49.1918 61.4201 49.4722 61.7596 49.4722H70.4461C70.1374 51.9949 68.0136 53.8884 65.5009 53.8946H61.7658C61.4201 53.9008 61.1422 54.1873 61.1484 54.5361C61.1484 54.7043 61.2225 54.8663 61.3398 54.9847L70.6807 63.8981C70.9276 64.1348 71.3166 64.1224 71.5512 63.8732C71.7858 63.6178 71.7735 63.2254 71.5265 62.9825L63.3092 55.1403H65.4948C68.7175 55.1403 71.3783 52.6488 71.6871 49.4722H74.8234C75.1629 49.4722 75.4407 49.1918 75.4407 48.8493C75.4407 48.5067 75.1629 48.2264 74.8234 48.2264H71.6871C71.508 46.4823 70.5757 44.8628 69.2114 43.8662H74.8234C75.1629 43.8662 75.4407 43.5859 75.4407 43.2433Z" fill="white"/>
<path d="M75.4407 43.2433C75.4407 42.9008 75.1629 42.6204 74.8234 42.6204H61.7596C61.4201 42.6204 61.1422 42.9008 61.1422 43.2433C61.1422 43.5859 61.4201 43.8662 61.7596 43.8662H65.5009C68.0445 43.8662 70.1436 45.7971 70.4461 48.2264H61.7596C61.4201 48.2264 61.1422 48.5067 61.1422 48.8493C61.1422 49.1918 61.4201 49.4722 61.7596 49.4722H70.4461C70.1374 51.9949 68.0136 53.8884 65.5009 53.8946H61.7658C61.4201 53.9008 61.1422 54.1873 61.1484 54.5361C61.1484 54.7043 61.2225 54.8663 61.3398 54.9847L70.6807 63.8981C70.9276 64.1348 71.3166 64.1224 71.5512 63.8732C71.7858 63.6178 71.7735 63.2254 71.5265 62.9825L63.3092 55.1403H65.4948C68.7175 55.1403 71.3783 52.6488 71.6871 49.4722H74.8234C75.1629 49.4722 75.4407 49.1918 75.4407 48.8493C75.4407 48.5067 75.1629 48.2264 74.8234 48.2264H71.6871C71.508 46.4823 70.5757 44.8628 69.2114 43.8662H74.8234C75.1629 43.8662 75.4407 43.5859 75.4407 43.2433Z" stroke="white" stroke-width="1.5"/>
</g>
</svg>
