<svg width="100" height="102" viewBox="0 0 100 102" fill="none" xmlns="http://www.w3.org/2000/svg">
<mask id="mask0_1937_5522" style="mask-type:alpha" maskUnits="userSpaceOnUse" x="0" y="0" width="100" height="102">
<rect width="100" height="102" fill="#D9D9D9"/>
</mask>
<g mask="url(#mask0_1937_5522)">
<path d="M56.8709 53.9357C56.0822 49.9797 55.3999 46.1739 54.5517 42.4057C53.6003 38.193 52.9712 33.9709 53.2091 29.6362C53.3155 27.7082 53.835 27.0729 55.7254 27.0697C62.2604 27.0604 68.7922 27.0604 75.3272 27.0697C77.1362 27.0697 77.7966 27.7301 77.7966 29.561C77.7966 32.2589 77.7715 34.9568 77.7152 37.6546C77.6995 38.362 77.856 38.7657 78.579 39.0693C83.0358 40.9472 86.7227 43.8266 89.6209 47.7169C89.8681 48.0455 90.4377 48.2928 90.8634 48.3053C93.0918 48.3616 95.3233 48.3241 97.5517 48.3366C99.3013 48.346 99.9867 49.0157 99.993 50.7371C100.002 52.8122 100.002 54.8841 99.993 56.9591C99.9867 58.7713 99.3545 59.3847 97.4985 59.3972C96.4876 59.4035 95.4767 59.3972 94.3124 59.3972C94.3656 60.261 94.4407 61.0184 94.4501 61.779C94.4752 63.3407 94.5284 64.9087 94.4501 66.4674C94.3781 67.9509 93.6958 68.5049 92.1716 68.5236C91.3955 68.533 90.6193 68.5236 89.7461 68.5236C89.5176 73.4342 87.6053 77.431 83.668 80.3291C80.7104 82.5075 77.3553 83.3682 73.7122 83.0458C67.581 82.5012 60.9208 77.5937 60.4733 68.5236C60.1071 68.5236 59.7315 68.5236 59.3528 68.5236C51.4501 68.5236 43.5474 68.5393 35.6416 68.5017C34.7277 68.4986 34.3302 68.7396 34.155 69.6566C33.9891 70.5267 33.6073 71.3655 33.2724 72.198C32.6777 73.669 31.5854 74.0727 30.1708 73.3842C29.6888 73.1494 29.2099 72.9053 28.634 72.6174C26.8595 77.6751 23.5857 81.1241 18.4623 82.5701C14.6001 83.6592 10.8694 83.171 7.35782 81.2024C0.747733 77.4998 -2.71067 68.3734 2.58804 60.1202C2.17178 59.923 1.76491 59.7352 1.36743 59.5349C0.0685721 58.8839 -0.272573 57.8292 0.412848 56.5272C2.80713 51.989 6.4095 48.8655 11.3389 47.3695C12.2027 47.1066 12.7129 46.6559 13.1479 45.8985C16.2495 40.5121 19.3887 35.1477 22.5122 29.7739C22.7219 29.4108 22.9159 29.0352 23.1475 28.6033C22.4903 28.4562 21.9082 28.3749 21.3604 28.1933C18.9975 27.414 17.5452 25.0949 17.8332 22.6067C18.118 20.1529 20.1868 18.1311 22.7469 18.0591C26.1083 17.9621 29.476 18.0059 32.8405 18.0403C34.036 18.0529 34.7121 18.7445 34.8467 19.9213C34.8967 20.3439 34.8936 20.7695 34.9218 21.3235C36.6744 21.3235 38.3896 21.3016 40.1015 21.3297C41.5068 21.3548 42.3299 22.181 42.2486 23.4048C42.1797 24.4626 41.4286 25.1449 40.161 25.1919C38.8715 25.2388 37.5789 25.2075 36.2895 25.2075C35.867 25.2075 35.4444 25.2075 34.9061 25.2075C34.2426 28.3623 33.3193 31.4045 33.0063 34.503C32.2051 42.415 35.0595 48.8248 41.56 53.5164C41.8323 53.7104 42.1828 53.9138 42.4958 53.9138C47.2249 53.9389 51.954 53.9326 56.8615 53.9326L56.8709 53.9357ZM90.6506 64.674C90.7914 61.8666 90.4753 59.2063 89.6991 56.6117C87.5458 49.4163 82.7416 44.7373 75.8092 42.1177C74.213 41.5168 73.925 41.1569 73.9157 39.4668C73.9157 38.9285 73.9157 38.3933 73.9157 37.7924H57.597C57.6909 38.3119 57.766 38.772 57.8599 39.2289C58.9052 44.44 59.96 49.648 60.9928 54.859C61.3965 56.8996 60.6923 57.7666 58.6455 57.7697C53.1308 57.7822 47.613 57.7854 42.0983 57.7572C41.535 57.7572 40.8746 57.679 40.4239 57.3816C33.5666 52.856 29.4916 46.5902 29.1348 38.2837C28.9971 35.082 29.4885 31.8552 29.6982 28.619C29.0409 28.7755 27.9831 27.9899 27.2538 29.2543C24.0771 34.7753 20.8534 40.2743 17.6548 45.7827C17.5327 45.9924 17.4858 46.2459 17.3825 46.537C22.2962 46.8593 26.4307 48.6683 29.7858 52.1393C33.1441 55.6133 34.7308 59.8479 34.9155 64.6709H90.6568L90.6506 64.674ZM30.1582 69.0713C32.2865 63.9667 30.2365 55.3817 22.7031 51.8388C15.2355 48.3272 7.32026 52.2363 4.854 56.9059C13.2887 60.9621 21.7204 65.0152 30.1582 69.0745V69.0713ZM6.26866 61.876C3.43308 64.89 3.05125 70.1261 5.32347 73.9851C7.7553 78.1101 12.6346 80.1382 17.2291 78.9364C21.2446 77.8848 24.8032 74.1385 24.8846 70.8115C24.1741 70.486 23.4449 70.1511 22.6937 69.8068C21.1163 76.2323 15.2261 77.6845 11.5204 76.0789C9.36714 75.1462 7.80225 73.6408 6.98538 71.4343C5.83988 68.3484 6.49713 65.5378 8.54714 62.9652C7.70523 62.5645 6.97286 62.214 6.26866 61.8791V61.876ZM83.3958 68.58C82.0437 74.0164 79.6901 76.4388 75.5337 76.6736C73.8092 76.7706 72.2068 76.3199 70.7483 75.3935C68.2601 73.8067 67.1522 71.403 66.8924 68.6144H64.3792C64.6077 72.8083 66.3885 75.9788 70.016 77.9317C73.9125 80.0256 77.7934 79.7439 81.3896 77.1962C84.2971 75.1369 85.7212 72.223 85.8151 68.5768H83.3895L83.3958 68.58ZM14.5907 72.7989C16.9224 72.7926 18.866 70.943 18.8191 68.6864C18.8128 68.3171 18.5061 67.7881 18.1868 67.6191C16.5281 66.7491 14.8036 66.0042 13.1354 65.1497C12.4813 64.8148 12.0556 64.9776 11.5862 65.4408C10.3655 66.6426 9.94615 68.4955 10.5721 70.0948C11.22 71.7473 12.7911 72.8052 14.5907 72.802V72.7989ZM57.2496 33.6454H73.7873C73.8124 33.2636 73.8468 32.96 73.8531 32.6533C73.8697 31.5537 73.3314 31.0039 72.2381 31.0039C67.6717 31.0039 63.1023 31.0039 58.5359 31.0039H57.2496V33.6454ZM70.8547 68.5831C70.9205 70.2607 71.6372 71.4875 73.0299 72.2543C74.5541 73.0962 76.1128 73.0336 77.5556 72.0352C78.7293 71.2215 79.3896 70.1042 79.3396 68.5831H70.8547ZM30.9438 21.9087C28.2522 21.9087 25.6858 21.8994 23.1162 21.915C22.243 21.9181 21.592 22.422 21.7141 23.2545C21.7861 23.7491 22.4527 24.5221 22.8784 24.5409C25.5481 24.6598 28.224 24.6004 30.9438 24.6004V21.9087ZM96.159 55.5288C96.159 54.5961 96.1934 53.7104 96.1371 52.8309C96.1245 52.6119 95.8272 52.2425 95.6457 52.2331C94.5471 52.1768 93.4423 52.205 92.228 52.205C92.6787 53.4444 93.0636 54.4928 93.4392 55.5288H96.159Z" fill="white"/>
<path d="M75.0698 55.8416C73.7428 55.8416 72.4158 55.8667 71.0887 55.8354C69.8681 55.8072 69.0356 54.9903 69.0293 53.8918C69.0231 52.8589 69.8118 51.9388 70.9479 51.9169C73.7177 51.8574 76.4907 51.8543 79.2637 51.9169C80.4593 51.9419 81.2636 52.909 81.201 53.9888C81.1384 55.0498 80.3435 55.8072 79.1698 55.8354C77.8052 55.8698 76.4375 55.8416 75.0698 55.8447V55.8416Z" fill="white"/>
<path d="M75.0491 61.4503C73.7596 61.4503 72.4701 61.4722 71.1838 61.444C69.91 61.4158 69.0211 60.5739 69.0274 59.4566C69.0336 58.3424 69.9225 57.4974 71.2026 57.4848C73.8191 57.4598 76.4356 57.4598 79.0521 57.4848C80.3353 57.4974 81.2085 58.3487 81.2053 59.4723C81.1991 60.599 80.3259 61.4158 79.0364 61.4409C77.7094 61.4659 76.3824 61.4471 75.0522 61.4471L75.0491 61.4503Z" fill="white"/>
</g>
</svg>
